<?xml version="1.0" encoding="UTF-8"?>
<svg width="499px" height="700px" viewBox="0 0 500 700" version="1.1" xmlns="http://www.w3.org/2000/svg" xmlns:xlink="http://www.w3.org/1999/xlink">
    <g id="taiwan" stroke="none" stroke-width="1" fill="none" fill-rule="evenodd">
        <g id="map" transform="translate(0.999695, 0.000000)">
            <path d="M221.763665,251.905862 C222.220995,252.506677 222.677364,253.106531 223.136616,253.704462 C223.306674,253.927485 223.478653,254.150508 223.649671,254.372569 C223.68522,254.418712 223.717886,254.461009 223.766886,254.523494 C224.507645,255.474224 225.253208,256.423032 226.00934,257.362226 C227.639779,259.386734 229.319218,261.370867 231.075519,263.285785 C236.463559,269.16224 242.744161,275.10887 245.28926,282.824301 C249.858717,283.15499 254.428175,283.48664 258.996671,283.817329 C259.750881,283.872123 260.505091,283.938453 261.260262,283.975944 C261.613829,283.993248 261.965473,284.004783 262.318078,283.998054 C262.383411,283.996131 262.563077,283.976905 262.713919,283.961524 C262.760036,283.949989 262.793663,283.948066 262.809996,283.951911 C262.815761,283.95095 262.817683,283.95095 262.823447,283.95095 C262.93778,283.885581 263.054995,283.825019 263.171249,283.758689 C263.204876,283.739463 263.228895,283.726966 263.257719,283.710624 C263.291346,283.669288 263.33362,283.6193 263.397031,283.552009 C263.572854,283.363593 263.76597,283.188636 263.943714,283.00022 C265.680799,281.165089 267.260317,279.153079 268.815816,277.160294 C268.64768,277.372743 269.284675,276.546021 269.309655,276.512375 C269.490282,276.274933 269.668025,276.036529 269.845769,275.798126 C270.157061,275.378997 270.465471,274.958907 270.771959,274.537856 C271.470444,273.573667 272.156439,272.598904 272.828022,271.614528 C274.237483,269.550607 275.498023,267.199256 277.335029,265.476598 C279.373798,263.566486 281.911212,262.592685 284.577369,261.922655 C287.046567,261.301653 289.519608,260.697953 291.993609,260.093293 C300.73284,257.953429 309.489366,255.876049 318.251655,253.828471 C335.346767,249.83425 352.449565,245.878482 369.490874,241.655471 C370.688003,240.82971 372.051346,240.153913 373.163926,239.448315 C374.979795,238.296672 376.779331,237.120036 378.536593,235.881875 C379.328274,235.323357 380.085366,234.643715 380.911635,234.140953 C379.658781,234.904228 380.989458,234.071739 381.274809,233.840064 C381.6351,233.548789 381.991548,233.252707 382.343193,232.951819 C383.715183,231.779989 385.022801,230.534138 386.242028,229.203692 C386.827141,228.564425 387.389196,227.90497 387.932035,227.230134 C387.994486,227.148423 388.214504,226.869645 388.261582,226.806199 C388.539246,226.428406 388.811146,226.045807 389.078242,225.659362 C390.215803,224.004957 391.240952,222.274609 392.178671,220.50004 C392.698452,219.517587 393.192291,218.520714 393.664994,217.514228 C393.779326,217.271018 393.887894,217.024924 394.000305,216.780753 C388.436443,215.215749 382.774582,214.014118 377.110799,212.860553 C375.3814,213.468097 373.234063,213.153751 372.051346,211.768511 C369.390953,208.653884 366.605659,205.649807 363.696426,202.769739 C357.767468,211.627199 349.185805,218.581277 339.858578,223.629087 C337.57481,224.864363 335.235317,225.991974 332.850668,227.019608 C331.139523,227.756929 329.476417,228.460604 327.628843,228.748034 C325.530505,229.074877 323.603185,228.974902 321.509651,228.668246 C318.299694,228.197206 315.123364,227.403169 311.948956,226.735062 C308.797606,226.070801 305.645295,225.4075 302.492024,224.743239 C300.877918,224.402937 299.262851,224.062635 297.647784,223.722333 C297.202944,223.628126 296.751379,223.546415 296.3075,223.441633 C296.221991,223.421445 296.163383,223.407026 296.104776,223.393567 C295.929914,223.379148 295.756014,223.367612 295.581152,223.365689 C295.57827,223.366651 295.576348,223.367612 295.574427,223.368573 C295.450486,223.487775 295.323664,223.604093 295.203567,223.72714 C294.807726,224.128004 294.446474,224.561552 294.078496,224.98741 C293.120601,226.093872 292.100256,227.061906 290.878147,227.888628 C285.334461,231.637715 278.06618,230.43993 272.50424,227.463731 C270.046572,226.148666 267.826215,224.441389 265.593368,222.786023 C263.059799,220.908595 260.507013,219.057122 257.934051,217.233527 C252.790049,213.585377 247.567263,210.046814 242.274341,206.618802 C234.915747,201.855538 227.411114,197.323948 219.787346,193 C219.014881,194.285264 218.241455,195.570528 217.471872,196.857715 C211.958932,206.080472 206.459442,215.315725 201.000305,224.574049 C204.559985,229.260409 208.119665,233.946769 211.679346,238.632168 C215.041106,243.057053 218.399983,247.48386 221.763665,251.905862" id="Taichung" fill="#d7dee4"></path>
            <path d="M264.286157,210.856033 C266.750064,212.628105 269.179323,214.444551 271.624944,216.24074 C272.802037,217.106036 273.99453,217.953968 275.239959,218.71701 C275.828986,219.078756 276.428601,219.423138 277.043616,219.73858 C277.289044,219.86495 277.538322,219.981674 277.784713,220.104185 L277.917533,220.170746 C277.934857,220.176534 277.945445,220.179428 277.966619,220.186181 C278.646118,220.402263 279.304444,220.658862 280.001267,220.821889 C280.194723,220.867227 280.423789,220.934753 280.647081,220.981057 C280.707716,220.981057 280.790488,220.982986 280.904059,220.98588 C281.520998,221.002279 282.121575,221.004208 282.739477,220.992633 C282.851123,220.990703 282.93197,220.989739 282.993568,220.990703 C283.215897,220.936683 283.445926,220.858546 283.60377,220.816101 C283.817437,220.759186 284.107138,220.709024 284.348717,220.62317 C284.428601,220.558538 284.522923,220.490047 284.608582,220.442779 C284.73274,220.374288 284.959882,220.275894 285.140825,220.164958 C285.166811,220.131195 285.199535,220.092609 285.239959,220.052094 C286.030141,219.240818 286.750064,218.375522 287.522923,217.547848 C288.628794,216.364216 289.921383,215.437182 291.40839,214.807262 C293.339092,213.991163 295.346792,214.05483 297.377591,214.384742 C300.435339,214.882505 303.468062,215.642653 306.498861,216.28222 C309.657668,216.948797 312.814549,217.615374 315.972394,218.281951 C317.582596,218.621509 319.191835,218.966856 320.803962,219.300627 C321.488274,219.442431 322.174511,219.573624 322.863635,219.687454 C322.951219,219.69903 323.037841,219.710605 323.085002,219.712535 C323.53351,219.733757 323.976243,219.775237 324.425714,219.772343 C324.58837,219.771379 325.268832,219.699994 325.291932,219.720252 C325.447851,219.687454 325.60377,219.659479 325.757764,219.620892 C326.384328,219.462689 326.984906,219.239854 327.586446,219.01316 C327.72119,218.961068 327.893471,218.893542 327.979131,218.854956 C328.266907,218.729551 328.552759,218.601252 328.839574,218.471988 C329.413202,218.211531 329.984906,217.947215 330.552759,217.675182 C332.832836,216.585122 335.066715,215.398595 337.238996,214.105957 C339.409352,212.814283 341.517148,211.417462 343.542172,209.906812 C343.712528,209.778512 343.923308,209.617415 344.020517,209.543137 C344.231296,209.375286 344.444001,209.208401 344.653818,209.038622 C345.141787,208.644078 345.623019,208.241816 346.098476,207.831838 C346.953144,207.095806 347.786638,206.336622 348.597995,205.553321 C349.585483,204.600242 350.540247,203.610505 351.453625,202.586041 C351.868447,202.120112 352.27557,201.648396 352.67403,201.168962 C352.832836,200.976996 352.99068,200.784065 353.147562,200.590169 C353.156224,200.579558 353.33428,200.352864 353.466138,200.184049 C353.634569,199.955426 353.938707,199.548341 353.982981,199.487568 C354.130238,199.28499 354.273645,199.081448 354.417052,198.877905 C354.775088,198.366638 355.122538,197.847653 355.4594,197.322881 C355.647081,197.032519 355.820324,196.735406 356.000305,196.44215 C355.427639,195.949211 354.849198,195.464954 354.262095,194.993238 C354.173548,194.925712 354.019554,194.809953 353.884809,194.714452 C353.655743,194.554319 353.425714,194.398045 353.18991,194.248524 C352.766426,193.979385 352.323693,193.729539 351.867485,193.511527 C351.74044,193.481623 351.184136,193.281939 351.112913,193.260716 C350.844386,193.182579 350.572009,193.113124 350.300594,193.050422 C349.958919,192.97132 349.609545,192.925016 349.268832,192.848809 L349.26787,192.848809 C344.20146,192.499603 339.119651,192.373233 334.044578,192.179338 C331.430526,192.079978 328.815512,191.979654 326.20146,191.880294 C324.456513,191.812769 322.752952,191.782864 321.187985,190.907922 C319.440151,189.93169 318.547947,188.14129 318.291932,186.230307 C317.950257,183.684581 318.25632,180.962324 318.299631,178.395375 C318.34198,175.872801 318.430526,173.347333 318.409352,170.823794 C318.40454,170.180369 318.388178,169.535979 318.33813,168.893519 C318.324655,168.72181 318.305406,168.549137 318.288082,168.375499 C318.26787,168.267457 318.241883,168.130476 318.224559,168.06488 C318.119651,167.65876 317.993568,167.25264 317.879997,166.84652 C317.85786,166.791534 317.824174,166.67674 317.776051,166.475127 C317.665368,166.260974 317.559497,166.04682 317.440151,165.83749 C317.248621,165.50179 317.035916,165.188277 316.828986,164.864153 C316.80685,164.83039 316.774126,164.785051 316.74044,164.739712 C316.458438,164.402083 316.175473,164.066382 315.875185,163.744188 C315.161036,162.981145 314.394915,162.268265 313.613394,161.576607 C309.898284,158.286167 306.039766,155.15586 302.280382,151.917511 C300.562384,150.439659 298.909833,148.751512 297.948332,146.668821 C297.941595,146.652421 297.936782,146.636987 297.929083,146.620588 C295.562384,146.654351 293.194723,146.663033 290.827061,146.613835 C289.081152,146.578143 287.33428,146.520264 285.590295,146.439233 C283.739477,146.353378 281.796263,146.355308 279.982018,145.954976 C278.030141,145.523775 276.571046,144.320849 274.925233,143.304102 C273.863635,142.648137 272.770276,142.042333 271.676917,141.443282 C268.713491,139.818802 265.706753,138.272459 262.703866,136.720328 C260.952182,135.814517 259.199535,134.90967 257.449776,134 C245.559497,150.497538 234.578746,167.651042 224.000305,185.032205 C232.638419,189.944231 241.121575,195.131183 249.417052,200.606568 C254.441113,203.923054 259.399728,207.339863 264.286157,210.856033" id="Miaoli" fill="#d7dee4"></path>
            <path d="M280.890745,135.133703 C281.310323,135.397387 281.709599,135.683205 282.114676,135.967098 C282.388272,136.158606 282.748877,136.322205 282.997337,136.540659 C283.018606,136.553169 283.025374,136.557019 283.043742,136.567604 C283.08338,136.57819 283.122051,136.588776 283.161688,136.600324 C283.18199,136.603211 283.197459,136.607061 283.199392,136.61091 C283.185857,136.607061 283.173289,136.603211 283.161688,136.600324 C283.140419,136.597437 283.114316,136.593588 283.085313,136.590701 C283.094014,136.595512 283.105615,136.602249 283.11335,136.606098 C283.138486,136.608023 283.14912,136.608985 283.177156,136.61091 C283.478789,136.632082 283.779454,136.649404 284.081087,136.666726 C288.886901,136.947733 293.703349,137.042043 298.517864,136.983339 C300.193277,129.502032 303.104222,122.243028 307.000305,115.605701 C306.35837,115.314109 305.719335,115.016743 305.084167,114.71649 C299.858774,112.244213 294.794833,109.39662 289.924245,106.289193 C287.807018,104.939016 285.616317,103.53591 283.530028,102 C280.772799,105.178641 278.058109,108.394814 275.392724,111.650444 C271.492773,116.41215 267.703034,121.256619 264.000305,126.163641 C268.668838,128.558929 273.362507,130.910912 277.959498,133.439968 C278.947537,133.983695 279.935576,134.533197 280.890745,135.133703" id="HsinchuSmall" fill="#d7dee4"></path>
            <path d="M309.631002,106.674892 C310.193772,106.936478 310.760416,107.193236 311.329966,107.441308 C311.381303,107.464474 311.492695,107.512737 311.610867,107.562931 C311.711604,107.604437 311.814278,107.646908 311.866584,107.667179 C312.736407,108.017568 313.615916,108.343825 314.510924,108.627611 C317.285059,109.505997 319.260081,113.038845 317.405169,115.717439 C315.910584,117.873828 314.528359,120.102611 313.276898,122.40765 C312.667635,123.528316 312.089367,124.665391 311.542095,125.816945 C311.267975,126.393205 311.001603,126.97236 310.742981,127.555376 C310.714891,127.619084 310.540539,128.027388 310.458206,128.218509 C310.402026,128.355576 310.340034,128.507122 310.320662,128.55442 C309.365599,130.919304 308.536458,133.334383 307.840019,135.786141 C307.493252,137.012985 307.178449,138.247551 306.897549,139.49177 C306.767753,140.063203 306.65055,140.638498 306.539158,141.213792 C306.520754,141.33638 306.49557,141.528467 306.489758,141.689665 C306.486852,141.767851 306.49557,142.090248 306.492664,142.256272 C306.504288,142.319979 306.517848,142.383686 306.532378,142.445463 C306.550782,142.474421 306.559499,142.4889 306.582746,142.524614 C306.620522,142.58253 306.731914,142.796817 306.827808,142.960911 C307.510687,143.692578 308.202283,144.384668 308.963621,145.040079 C310.816596,146.635652 312.697662,148.201303 314.566135,149.781432 C318.200408,152.853851 322.08168,155.744802 324.924588,159.602943 C328.064863,163.865527 328.226623,168.940859 328.141384,174.016191 L328.014494,181.538455 C328.009651,181.821276 328.004808,182.104097 327.999965,182.386918 L342.358829,182.932289 C347.609734,183.132098 353.139601,182.992135 357.843234,185.685208 C360.042976,186.943906 361.978284,188.689094 363.882597,190.345479 C365.661957,191.89472 367.403541,193.487397 369.103474,195.121581 C370.755944,196.707501 372.366764,198.335893 373.939807,200 C375.876084,193.838751 377.645758,187.626344 379.138406,181.341542 C380.691108,174.799016 381.943538,168.194714 383.000305,161.557592 C376.318745,154.790161 372.224376,145.949353 371.049437,136.540973 C370.777254,134.364314 370.788877,132.184759 370.67458,129.998447 C370.656176,129.624892 370.620337,129.252302 370.599027,128.879712 C370.595153,128.812144 370.57578,128.678938 370.558345,128.570829 C370.477949,128.14708 370.393679,127.725262 370.276476,127.30827 C370.216421,127.092052 370.010105,126.533167 369.988795,126.433745 C369.803788,126.04185 369.612969,125.651886 369.397935,125.274469 C368.856475,124.322724 368.22009,123.437581 367.580799,122.548578 C367.535273,122.485836 367.425819,122.346839 367.358984,122.261896 C367.352204,122.254174 367.341549,122.24066 367.336706,122.234869 C367.2844,122.170196 367.234032,122.105524 367.181726,122.041817 C366.830116,121.609381 366.470757,121.184667 366.103649,120.765744 C364.727236,119.192372 363.250086,117.708769 361.714819,116.290803 C360.119497,114.818783 358.459278,113.418192 356.769031,112.055246 C355.895333,111.350607 355.013886,110.656586 354.127596,109.966426 C353.905782,109.79461 353.682999,109.622794 353.462153,109.450977 C353.448592,109.441325 353.399192,109.401749 353.341075,109.357347 C353.211279,109.257926 352.998182,109.093832 352.943939,109.05136 C352.721156,108.880509 352.499342,108.709658 352.276558,108.539773 C348.849571,105.910407 345.41096,103.284903 341.780562,100.938358 C339.947927,99.7539848 338.065893,98.6400759 336.123804,97.6439285 C335.561035,97.3553161 334.99439,97.0763562 334.421934,96.8089794 C334.230147,96.7201756 334.039328,96.632337 333.847541,96.5454637 C333.785549,96.5184364 333.560828,96.4180495 333.411661,96.3504814 C333.34192,96.3205583 333.278959,96.2944963 333.261524,96.2877395 C332.999996,96.1834916 332.738468,96.0792436 332.475971,95.9798219 C331.94904,95.7800133 331.418235,95.5908225 330.883555,95.4112843 C326.4492,93.9238201 322.003221,92.4682094 317.567897,90.9855715 C311.114932,88.8282175 304.633877,86.7345705 298.05596,85 C294.983488,88.1679803 291.968165,91.3909803 289.000305,94.657417 C293.249653,97.7288713 297.759561,100.460554 302.356645,102.975054 C304.742363,104.28105 307.162951,105.528165 309.631002,106.674892" id="Hsinchu" fill="#d7dee4"></path>
            <path d="M198.754388,410 C199.185559,409.848315 199.700725,409.65309 199.366147,409.803371 C204.601798,407.566011 209.805251,405.240169 215.000305,402.898876 C210.617197,400.932584 206.234089,398.967697 201.849582,397 C201.327417,397.869382 200.813651,398.742978 200.278886,399.606742 C198.078233,403.158708 195.12863,406.155899 191.000305,407.279494 C192.578,407.780899 194.147295,408.310393 195.694192,408.897472 C196.709124,409.280899 197.714257,409.69382 198.754388,410" id="Chiayi" fill="#d7dee4"></path>
            <path d="M176.459106,527.829841 C176.550154,527.8433 177.006352,527.905788 177.305373,527.949048 C177.452966,527.950971 177.839201,527.976928 177.911081,528 C177.957084,528 177.978169,528 178.009796,528 C179.068828,527.328978 180.042562,526.544516 181.035464,525.779282 C183.30687,524.029625 185.576361,522.28093 187.846809,520.531273 C192.450002,516.983892 197.052236,513.436512 201.656388,509.889131 C202.854387,508.966235 204.052387,508.042378 205.250386,507.119482 C205.502445,506.925289 205.754504,506.730135 206.006563,506.536904 C206.066942,506.490759 206.115821,506.452305 206.160866,506.418658 C206.174283,506.407122 206.183867,506.399431 206.20016,506.386933 C206.693736,505.993741 207.189228,505.605356 207.675137,505.202551 C208.642162,504.397901 209.579477,503.552874 210.434369,502.628056 C210.676844,502.36753 210.911652,502.098352 211.14071,501.825329 C211.206839,501.745537 211.358266,501.544614 211.455065,501.416755 C211.744501,501.011065 212.032021,500.60153 212.303248,500.182382 C213.701553,498.024151 214.918721,495.730371 216.066883,493.430822 C216.630422,492.303159 217.170001,491.162998 217.690412,490.015146 C217.913719,489.521974 218.132234,489.028801 218.349791,488.533706 C218.486842,488.222229 218.621018,487.90979 218.755194,487.59639 C218.788738,487.519482 218.850075,487.372396 218.904704,487.244536 C221.791404,480.323779 224.244906,473.23094 227.000305,466.25827 C224.792152,466.42939 222.570582,466.430351 220.356679,466.225584 C217.995183,466.007357 215.287704,464.168295 215.564682,461.418835 C216.168474,455.415205 216.548,449.387542 216.489537,443.350265 C216.459827,440.428723 216.333318,437.507181 216.115762,434.593329 C216.000754,433.059976 215.85891,431.528546 215.696941,430 C209.958045,430.404728 204.219148,430.810418 198.480252,431.216108 C194.835458,431.473749 191.191623,431.73043 187.54683,431.988071 C185.85813,432.107279 184.168472,432.225525 182.479772,432.361075 C182.365722,432.369727 182.284258,432.375495 182.216212,432.379341 C182.161583,432.390877 182.102162,432.403375 182.026449,432.418756 C181.669924,432.489896 181.315316,432.558152 180.963584,432.64948 C180.496843,432.77061 180.044478,432.924426 179.593072,433.088817 C179.569112,433.100353 179.556653,433.106121 179.531735,433.117657 C176.892302,434.427977 174.49247,436.166098 171.922042,437.602354 C169.314237,439.058799 166.626885,440.363351 163.928032,441.636178 C161.250264,442.897469 158.559078,444.132804 155.920604,445.475809 C153.253378,446.834197 150.782624,448.532902 148.141275,449.917245 C146.198599,450.937238 144.056576,451.477516 141.877176,450.942044 C140.605379,450.628644 139.516637,449.968197 138.394352,449.335629 C138.001408,449.113557 137.595046,448.922248 137.187727,448.729017 C137.182935,448.726133 137.180059,448.725172 137.174309,448.722288 C137.004672,448.654032 136.835036,448.584815 136.665399,448.519443 C133.903291,447.452345 131.052053,446.612125 128.207523,445.797861 C121.505435,443.878046 114.738176,442.199529 108.005419,440.390269 C107.99296,442.098587 108.000305,443.810751 108.058131,445.530606 C108.934108,471.99176 117.646919,498.116441 131.314654,521.047518 C134.875109,521.58299 138.436521,522.118462 141.997934,522.652011 C153.484352,524.378595 164.972687,526.104218 176.459106,527.829841" id="Tainan" fill="#d7dee4"></path>
            <path d="M182.670534,377.227229 C184.741457,376.493858 186.801863,375.731765 188.846971,374.925631 C191.858702,373.737493 194.717455,372.460316 197.986377,372.154905 C201.795499,371.797793 205.597928,373.34017 209.179496,374.438312 C212.657805,375.505817 216.138027,376.573323 219.617292,377.640828 C223.247622,378.755245 226.877952,379.868706 230.509238,380.982166 C232.306715,381.533631 234.101324,382.094669 235.901669,382.635602 C236.570943,382.837615 237.241172,383.037712 237.924787,383.187067 C238.072027,383.218661 238.655251,383.255043 238.735564,383.269404 C239.02622,383.272276 239.317832,383.279935 239.613268,383.270361 C239.080718,383.367059 239.098884,383.365144 239.665854,383.265574 C239.959378,383.20813 240.250034,383.143026 240.538778,383.067391 C240.829433,382.991757 241.117221,382.908462 241.404052,382.820381 C242.266459,382.553266 243.109743,382.230621 243.953984,381.908933 C245.553547,381.299067 247.151198,380.685371 248.749806,380.07359 C248.832987,380.041039 248.917124,380.009444 249.000305,379.97785 C248.839679,379.906045 248.679054,379.833282 248.519384,379.760519 C247.587182,379.343091 246.656892,378.921834 245.720866,378.512065 C245.58223,378.450791 244.628994,378.054426 244.644292,378.056341 C244.274279,377.906028 243.90331,377.753801 243.528517,377.610191 C241.764504,376.933306 239.966071,376.359822 238.108359,376.001753 C236.038392,375.602515 234.643435,373.353574 234.599454,371.385152 C234.371902,361.600487 234.629094,351.813907 234.565035,342.028284 C225.365394,343.951708 216.120817,345.791838 206.767244,346.672649 C198.306672,347.470166 190.020112,346.910085 181.621687,345.743968 C171.64569,344.357647 161.731839,342.541452 151.93559,340.190069 C147.862583,339.21256 143.813479,338.142183 139.786366,337 C130.474861,356.040844 121.126068,375.642726 115.000305,396 C116.466014,395.639059 117.931722,395.279075 119.397431,394.916219 C140.622001,389.658158 162.035881,384.535091 182.670534,377.227229" id="Yunlin" fill="#d7dee4"></path>
            <path d="M465.527597,46.7488149 C465.28866,46.8466704 465.049723,46.9454853 464.810785,47.0443002 C464.679225,47.1009029 464.547664,47.1555869 464.417071,47.2121896 C463.807636,47.4740971 463.200136,47.7408014 462.595538,48.0132619 C461.384407,48.5610609 460.183918,49.1318849 459.00084,49.7382054 C457.852588,50.326298 456.72078,50.947009 455.619928,51.6176072 C455.103359,51.9322799 454.592595,52.2575056 454.091504,52.5952032 C453.865143,52.7477427 453.641683,52.9031603 453.419191,53.061456 C453.415322,53.0643341 453.411452,53.0672122 453.407583,53.0710497 C452.955827,53.5401806 452.876504,53.5891084 452.966468,53.4826185 C452.387021,53.9910835 451.752435,54.4515801 451.220389,55.011851 C451.091731,55.1480813 450.968876,55.288149 450.845055,55.4282167 C450.649648,55.778386 450.366213,56.1362302 450.150492,56.4576185 C449.811917,56.9603273 449.419171,57.394921 449.000305,57.7940181 C449.718084,61.1585214 450.439732,64.5211061 451.14687,67.8884876 C451.371297,68.9572235 451.587017,70.0413093 451.758239,71.1321106 C454.604203,71.7576185 457.451134,72.3869639 460.300968,73 C461.189969,70.2274266 461.876792,67.3905756 462.734838,64.6093679 C463.15467,63.2499436 463.582242,61.7398984 464.35903,60.5416479 C465.952266,58.0827878 469.455066,56.6773138 472.072733,55.5606095 C477.557647,53.2197517 483.213782,52.3227427 489.097246,51.5638826 C489.448397,51.5187923 489.800515,51.473702 490.150698,51.4276524 C490.189392,51.4238149 490.252271,51.41614 490.323855,51.4065463 C490.906204,51.3393905 491.488553,51.2472912 492.067999,51.1619074 C493.384572,50.9661964 494.696308,50.7455418 496.000305,50.4845937 C495.281559,48.2435102 494.301626,46.112754 492.831244,44.2467833 C491.076459,42.0200903 488.723847,40.4985327 486.349953,39 C484.734467,39.6351016 483.11221,40.2510158 481.477377,40.8419865 C476.146273,42.7712754 470.779377,44.6103837 465.527597,46.7488149" id="Keelung" fill="#d7dee4"></path>
            <path d="M441.76749,71.5969166 C441.589519,70.5873046 441.372105,69.5845209 441.16335,68.5807618 C440.53035,65.533392 439.896388,62.4850468 439.262426,59.437677 C437.956984,59.2308772 436.658276,58.8728795 435.458655,58.4885442 C431.558683,57.2389665 427.956932,55.2246199 424.382118,53.2473412 C422.743822,52.3411292 421.096868,51.4446718 419.395079,50.6633199 C419.385459,50.659418 418.926582,50.4633485 418.769775,50.3931146 C418.413833,50.2584997 418.056929,50.1287621 417.699062,50 C417.509547,50.2916657 417.322918,50.5843068 417.143985,50.8837763 C416.727436,51.5812377 416.34071,52.297233 415.978034,53.0259094 C415.804873,53.3761034 415.63556,53.7301991 415.472019,54.0862459 C415.397944,54.2491494 415.326756,54.4130285 415.253643,54.5769075 C415.094912,55.3094859 414.661048,56.0732792 414.415736,56.7824463 C414.165615,57.5062454 413.931847,58.2358973 413.716358,58.9704266 C413.269987,60.4872832 412.893843,62.0256002 412.593697,63.5795246 C412.506154,64.0292165 412.426308,64.4798839 412.352233,64.9315267 C412.326259,65.0905284 412.214666,65.9508934 412.219476,65.8552973 C412.20697,65.9694273 412.196388,66.0708763 412.191578,66.1176988 C412.153098,66.4922795 412.119428,66.8668602 412.090568,67.2414408 C411.992443,68.5817373 411.965507,69.930813 412.054011,71.2720849 C412.087682,71.7861578 412.161756,72.2963289 412.19735,72.8094264 C412.200236,72.8474697 412.201198,72.8660037 412.203122,72.8933168 C412.222362,73.0308582 412.242565,73.167424 412.262767,73.3039899 C412.409954,74.2706812 412.586963,75.2324951 412.788022,76.1894316 C413.208419,78.1793914 413.738484,80.1449644 414.337814,82.0861507 C415.212277,84.916966 416.237775,87.6941305 417.302716,90.4566629 C423.763548,90.7044324 430.279215,89.9474673 436.66982,91 C436.691946,90.9736623 436.715035,90.950251 436.737161,90.9248888 C436.950726,90.66834 437.160443,90.4078894 437.371123,90.1474388 C437.385553,90.1240275 437.397097,90.1074445 437.416337,90.0801313 C438.152271,88.9973591 438.843954,87.9067831 439.397107,86.7137827 C439.423081,86.5538055 439.692443,85.9480384 439.717455,85.876829 C439.952185,85.1969261 440.15613,84.5072684 440.339873,83.811758 C440.777586,82.1505318 441.096972,80.4561395 441.438484,78.7724775 C441.531798,78.3130309 441.624151,77.8535843 441.707846,77.3921867 C441.763642,77.0849135 441.816552,76.7786158 441.865615,76.4703671 C441.877159,76.3903785 441.884855,76.3396541 441.894475,76.2791749 C441.901209,76.1348053 441.967587,75.3407723 441.974321,75.2168875 C442.003181,74.6706241 442.008953,74.1253361 441.986827,73.5780971 C441.972397,73.2161976 441.935841,72.856249 441.901209,72.4963003 C441.879083,72.4153363 441.776148,71.6447146 441.76749,71.5969166" id="Taipei" fill="#d7dee4"></path>
            <path d="M199.240665,555.830758 C199.997954,553.584594 200.602246,551.057539 201.910903,549.061378 C203.71127,546.319069 206.496978,545.062299 209.691642,544.871177 C211.891341,544.737971 214.117984,545.131798 216.2994,545.364426 C217.448324,545.487014 218.60206,545.591262 219.758682,545.594158 C220.25424,545.595123 220.75076,545.534312 221.244393,545.537207 L221.250167,545.537207 C221.446466,545.501493 221.642764,545.467709 221.837138,545.421376 C222.179699,545.340294 222.514561,545.19647 222.855197,545.126006 C222.864819,545.124075 222.865782,545.125041 222.874442,545.12311 C223.169852,544.967703 223.470073,544.821949 223.757786,544.648201 C224.032989,544.483142 224.482359,544.029469 224.7999,543.939699 C224.875918,543.876957 224.951936,543.816146 225.026029,543.751473 C226.335648,542.636596 227.532685,541.398165 228.829796,540.268809 C230.270281,539.012039 231.799294,537.804496 233.546736,537.012982 C236.024525,535.890382 238.569672,535.567985 241.276476,535.569915 C250.033896,535.578603 258.793241,535.62397 267.551624,535.65872 C268.920903,528.620032 270.447029,521.612232 272.154057,514.647869 C275.652791,500.383232 279.85108,486.283655 284.758546,472.441803 C286.044109,468.815315 287.448991,465.331685 289.999911,462.39922 C292.42189,459.615406 295.870587,457.655925 298.883386,455.586404 C303.921718,452.12594 308.961011,448.665477 314.000305,445.205014 C313.792459,445.010032 313.595199,444.804431 313.379655,444.61717 C313.170847,444.435701 312.957228,444.260023 312.744571,444.08145 C312.726288,444.066006 312.698383,444.04477 312.668554,444.021604 C312.184543,443.675075 311.705343,443.323719 311.209785,442.994565 C309.068783,441.564047 306.794029,440.350713 304.52601,439.142206 C302.699663,438.169222 301.709509,435.65375 302.314763,433.692338 C303.513725,429.80523 304.712686,425.920052 305.910685,422.033908 C300.686639,422.026186 295.46067,422.018464 290.2347,422.010742 C288.642179,422.008811 287.049658,422.006881 285.4581,422.003985 C284.727754,422.00302 283.995483,421.990471 283.266099,422.015568 C283.106366,422.02136 282.409698,422.130434 282.451075,422.104372 C282.339454,422.130434 282.229757,422.155531 282.118137,422.181593 C282.097929,422.189315 282.092156,422.191246 282.073873,422.198003 C281.985346,422.246266 281.897782,422.295494 281.810217,422.344722 C281.724577,422.41036 281.151077,422.806117 281.145304,422.783916 C280.763291,423.097626 280.388977,423.423885 280.012738,423.745317 C278.862851,424.726988 277.713927,425.707694 276.563078,426.689365 C271.762422,430.787866 266.945408,434.869958 262.165921,438.99259 C257.836767,442.726222 253.557649,446.528388 249.516207,450.57573 C247.454109,452.642355 245.452633,454.771723 243.547381,456.983137 C242.570699,458.115389 241.627696,459.272738 240.699127,460.444565 C240.660637,460.492829 240.630807,460.531439 240.599053,460.571015 C240.582695,460.593216 240.564412,460.618313 240.540356,460.652097 C240.329623,460.939745 240.112155,461.221601 239.900461,461.508284 C239.477072,462.082615 239.063305,462.662737 238.653387,463.247685 C238.333921,463.958118 238.024077,464.674342 237.711346,465.389601 C237.676705,465.468752 237.652649,465.522807 237.63148,465.568174 C237.616084,465.60775 237.599725,465.647326 237.579518,465.698485 C237.476558,465.945592 237.374559,466.191733 237.272561,466.43884 C236.731778,467.757388 236.207352,469.082692 235.691587,470.411857 C234.632152,473.143548 233.613131,475.891648 232.58545,478.634922 C230.443486,484.357958 228.268805,490.08196 225.694791,495.626423 C223.406565,500.555049 220.833513,505.68831 217.037444,509.6343 C214.973422,511.780077 212.524501,513.535887 210.173728,515.346718 C207.831616,517.151758 205.488542,518.956797 203.147392,520.761836 C198.398698,524.421143 193.649041,528.08045 188.901308,531.739757 C186.749721,533.399042 184.591399,535.523583 182.112647,536.667418 C178.594668,538.291953 174.905409,537.271672 171.245979,536.722438 C160.164729,535.057362 149.082517,533.392285 138.000305,531.727209 C142.302517,537.920328 146.959798,543.824833 151.9173,549.368331 C163.43926,562.249748 176.66921,573.369562 189.404564,585 C189.522921,584.647679 189.641277,584.296324 189.759634,583.945934 L199.240665,555.830758 Z" id="Kaohsiung" fill="#f6b633"></path>
            <path d="M337.674416,88.2453444 C341.737124,89.9853406 345.520773,92.2899459 349.138912,94.8138543 C352.933146,97.4608801 356.579191,100.321438 360.230047,103.158911 C363.638411,105.806899 367.008284,108.52414 370.066381,111.576107 C373.193762,114.698289 376.415445,118.298514 378.214891,122.374856 C379.377315,125.006493 379.863262,127.655442 379.995093,130.529466 C380.050904,131.72409 380.052829,132.920638 380.114414,134.1143 C380.141358,134.63274 380.178886,135.150219 380.227962,135.666735 C380.252019,135.924512 380.281849,136.182289 380.309755,136.440067 C380.330925,136.642056 380.300133,136.777678 380.275114,136.797877 C380.322265,137.620263 380.71872,138.697541 380.878457,139.371802 C381.08727,140.254785 381.3288,141.130073 381.601123,141.995743 C381.776256,142.552657 381.964861,143.105724 382.165976,143.65302 C382.255467,143.896369 382.346883,144.139718 382.440223,144.381144 C382.465242,144.443665 382.539337,144.630265 382.594187,144.76781 C382.608621,144.803399 382.622092,144.834178 382.628828,144.848606 C382.73564,145.085222 382.84149,145.321839 382.952151,145.556531 C383.171549,146.025917 383.401532,146.491455 383.641137,146.952183 C384.562993,148.727768 385.659982,150.358113 386.793537,152 C386.840688,151.979801 386.886877,151.956717 386.933066,151.937479 C389.275234,150.993899 391.66359,150.167666 394.07023,149.396258 C394.22708,149.327966 394.382968,149.260636 394.537894,149.191382 C396.308472,148.399776 398.060768,147.561038 399.769761,146.642466 C400.524181,146.237525 401.269941,145.811423 402.000305,145.360313 C400.791693,142.78735 399.585005,140.213425 398.394676,137.631805 C395.304824,130.927674 391.980177,124.168717 389.655331,117.15102 C389.561991,116.869197 389.476348,116.586411 389.388782,116.303626 C389.3118,116.053543 389.226158,115.803461 389.153025,115.552417 C389.135705,115.495667 389.128006,115.466812 389.116459,115.430261 C389.11261,115.417757 389.110685,115.410062 389.106836,115.39852 C388.898986,115.034939 388.570851,114.54824 388.496757,114.438588 C388.443832,114.357792 388.384171,114.279882 388.328359,114.20101 C388.225396,114.087511 388.108961,113.965355 388.079131,113.932652 C387.643222,113.45942 387.168823,113.035241 386.687687,112.611063 C386.65497,112.582207 386.632838,112.562008 386.607819,112.538924 C386.435572,112.41773 386.266213,112.292689 386.093004,112.173419 C385.166337,111.532823 384.195405,110.959558 383.207153,110.418033 C381.109402,109.26573 378.878858,108.343311 376.808051,107.143878 C374.831547,106.000232 373.393914,104.441064 372.588493,102.295165 C372.015942,100.769662 372.000546,99.0017723 371.932224,97.3877791 C371.499202,87.2190447 373.542104,76.966629 377.66351,67.659717 C375.386777,66.9671811 373.204347,65.9716609 371.212446,64.6712325 C369.425508,63.504502 367.713628,62.1367438 366.264448,60.566034 C365.434009,59.6647756 364.700758,58.6894543 363.833752,57.8189753 C361.831266,55.8077358 359.601684,54.0215705 357.407706,52.2277103 C354.107117,49.5277825 350.81615,46.8191979 347.627184,44 C346.343515,44.5222874 345.032902,45.0657357 343.660704,45.6601623 C337.18462,48.4639705 330.640215,55.5951658 325.26497,60.1312754 C319.092001,65.3406838 313.103789,70.7665096 307.296484,76.3798972 C306.861537,76.8011899 306.433327,77.2301773 306.000305,77.6533937 C311.999102,79.412627 317.933427,81.4046294 323.858129,83.3995173 C328.477992,84.956761 333.189271,86.3235574 337.674416,88.2453444" id="Taoyuan" fill="#d7dee4"></path>
            <path d="M373.164249,53.3181326 C373.801381,54.0098752 374.509841,54.5985308 375.193241,55.2392116 C375.233724,55.2767854 375.257821,55.2999077 375.279027,55.3201397 C375.372524,55.3837261 375.46795,55.4453856 375.551808,55.5041548 C375.908448,55.7546465 376.271835,55.9935771 376.64197,56.2228734 C377.066082,56.4839629 377.497906,56.7306009 377.938404,56.9618241 C378.154316,57.0755088 378.894585,57.5822729 379.112424,57.5360283 C379.101821,57.5379551 378.284441,57.2152061 378.819401,57.4155995 C378.993865,57.4811128 379.166402,57.55337 379.340866,57.6179198 C379.749556,57.7701417 380.162102,57.9088756 380.578503,58.0350849 C381.473959,58.308699 382.380981,58.5042752 383.300533,58.6748023 C383.330414,58.6796194 383.342945,58.6825097 383.36897,58.6873269 C383.508734,58.6979246 383.661029,58.7056321 383.684162,58.7075589 C384.117913,58.7441692 384.551665,58.7624744 384.988308,58.774999 C388.642421,58.8742323 390.989497,62.7905744 389.149428,66.0228815 C388.27807,67.5537714 387.464545,69.1145277 386.723313,70.7118943 C386.51704,71.1598892 386.317514,71.6098109 386.117025,72.0606961 C386.097747,72.1050138 386.083289,72.1377705 386.067866,72.1743808 C386.057263,72.2023203 386.045697,72.2321866 386.031238,72.2726506 C385.733396,73.0645899 385.410492,73.8449681 385.124216,74.6397977 C383.981041,77.8210429 383.096188,81.093814 382.479298,84.4166834 C382.328931,85.2307816 382.206516,86.0468066 382.077355,86.8628317 C382.050366,87.0824937 382.022413,87.3031191 381.998316,87.5227811 C381.958796,87.8725061 381.923132,88.2231946 381.889396,88.573883 C381.72939,90.255068 381.636856,91.9439605 381.614687,93.6338164 C381.593481,95.2388905 381.769873,96.8535988 381.755415,98.4538557 C381.762162,98.4577094 381.768909,98.4615632 381.775657,98.4654169 C382.032052,98.6147485 382.298086,98.7486652 382.561228,98.8835454 C387.039469,101.182289 391.952425,103.236321 395.329901,107.126651 C397.112137,109.17972 398.155068,111.378267 398.97534,113.948697 C399.382102,115.222352 399.867903,116.472883 400.363344,117.714744 C400.684319,118.521135 401.016862,119.322709 401.349405,120.124282 C401.679056,120.880575 401.62315,120.764963 401.518086,120.524106 C401.538327,120.573241 401.559533,120.621412 401.580739,120.670547 C401.757131,121.082895 401.935451,121.495243 402.112807,121.906628 C402.899342,123.718839 403.7013,125.523343 404.512897,127.323993 C406.082113,130.805829 407.686028,134.271286 409.305366,137.730962 C410.194075,139.629882 411.117483,141.516278 411.973419,143.431576 C412.060169,143.624262 412.122822,143.812131 412.190294,144 C416.603954,142.87086 421.03882,141.816868 425.486216,140.840914 C425.802372,140.771547 428.372107,140.348601 429.652156,140.048974 C429.652156,140.04223 429.653119,140.037413 429.654083,140.030669 C429.672397,139.871703 429.689747,139.712737 429.707097,139.553771 C429.875778,138.043113 430.043496,136.532456 430.211213,135.021798 C430.927384,128.582233 431.643556,122.141704 432.358763,115.70214 C432.589133,113.630766 433.661945,111.571916 435.89721,111.056481 C445.074422,108.940789 454.249707,106.825097 463.426919,104.708442 C465.39615,104.254667 467.391406,103.85388 469.327864,103.269078 C469.801135,103.125527 470.260911,102.944402 470.732254,102.794107 C470.946238,102.69102 471.16215,102.590823 471.374206,102.477139 C471.730846,102.287343 472.078811,102.081169 472.417137,101.860544 C472.58871,101.749749 472.901974,101.514672 472.987761,101.45783 C474.290942,100.36241 475.458215,99.1253663 476.560907,97.8266629 C477.077553,97.2187387 477.580704,96.6002168 478.077109,95.9759143 C478.331576,95.6560556 478.583152,95.3323431 478.835691,95.0105576 C478.900272,94.9257758 478.966781,94.8409939 479.030398,94.7562121 C483.249351,89.2550279 487.514572,83.2913974 493.891679,80.1111156 C495.536078,79.2902734 497.24795,78.6736783 499.000305,78.197744 C498.901988,71.8583758 498.403656,65.521898 497.28265,59.2788728 C497.005049,59.3337883 496.73034,59.3983381 496.451775,59.447473 C495.017505,59.7066356 493.574559,59.9195536 492.129685,60.1170567 C491.116635,60.2548272 490.101657,60.3897074 489.088607,60.5216972 C488.623047,60.5823933 488.157488,60.642126 487.691928,60.702822 C487.649517,60.7086026 487.582044,60.7153466 487.505897,60.7220906 C487.532886,60.7201638 487.556019,60.7182369 487.586864,60.7163101 C485.065323,60.908996 482.459924,61.4928345 480.018387,62.1402593 C478.59761,62.5169604 477.220209,62.9938581 475.842808,63.5073662 C475.815819,63.517964 475.779191,63.531452 475.739671,63.54494 C475.444721,63.6663321 475.153625,63.81181 474.869277,63.9466902 C474.262026,64.2357192 473.662485,64.5411264 473.070655,64.8638754 C472.730402,65.0498173 472.247492,65.2627353 471.780004,65.5026294 C471.777113,65.5093734 471.774221,65.5161174 471.772293,65.5228614 C471.246008,67.0768737 470.819968,68.6655694 470.380434,70.2455943 C469.515823,73.3555457 468.849774,77.0560796 467.069466,79.7989643 C464.740704,83.3858135 460.508255,82.5389587 456.917759,81.7479828 C454.881056,81.2980611 452.844353,80.8500662 450.80765,80.4011079 C450.740177,80.7392718 450.67656,81.0783991 450.608124,81.4146361 C449.888097,84.9167035 449.127587,88.2896712 447.598854,91.5451006 C446.269648,94.3766208 444.222342,96.8439645 442.1066,99.1369275 C442.050694,99.2082213 441.982258,99.2698808 441.920569,99.3392477 C441.83671,99.4288467 441.753815,99.5203725 441.669957,99.6099715 C441.628509,99.6542893 441.579351,99.6822287 441.53694,99.7236562 C441.465612,99.7862792 441.397175,99.8479387 441.322956,99.9067079 C440.607748,100.52523 439.756632,100.864357 438.865996,100.950102 C438.836115,100.953956 438.807199,100.952029 438.777318,100.955883 C438.580684,100.971298 438.386942,100.989603 438.189344,100.980932 C437.782582,100.982859 437.375819,100.952029 436.981588,100.848942 C436.007093,100.59267 434.96609,100.299787 433.956896,100.225603 C433.811348,100.215005 433.668692,100.205371 433.597364,100.197664 C433.055657,100.143712 432.512986,100.101321 431.969351,100.067601 C429.949034,99.9423548 427.923898,99.9423548 425.899725,99.9693308 C421.863911,100.023283 417.814602,100.217896 413.791318,99.7988037 C411.459664,99.5560194 410.017682,98.4519289 409.144397,96.2620529 C406.408872,89.4091767 403.681059,82.4821163 402.65837,75.1301835 C401.808217,69.0191482 402.420288,62.9967484 404.143727,57.0706917 C405.64065,51.9192325 407.870132,46.9257758 411.298694,42.7666493 C411.649551,42.3417767 412.014866,41.9149773 412.417773,41.5363494 C414.009158,40.0449601 415.85501,39.9746297 417.864724,40.4727229 C419.113928,40.7819839 420.331323,41.2001124 421.525585,41.6779736 C424.436538,42.8437237 427.19134,44.2869415 429.939395,45.789892 C431.186671,46.4710369 432.434911,47.1521818 433.706284,47.7880454 C434.388719,48.130063 435.078866,48.4479949 435.772868,48.7659267 C436.16228,48.9094777 436.242283,48.9431978 436.188305,48.925856 C436.38783,49.0048573 436.587356,49.0838585 436.789773,49.1570792 C438.160427,49.6532456 439.56289,50.0222392 440.993305,50.2977801 C441.564893,50.3970134 441.573568,50.3970134 441.01933,50.2977801 L441.455009,50.3103047 C441.46754,50.3093413 441.471395,50.3093413 441.483926,50.3083778 C441.528265,50.2968167 441.572604,50.2842921 441.616943,50.2708041 C441.655498,50.2496086 441.708512,50.2361206 441.76249,50.2226326 C441.781768,50.1956565 441.804902,50.1667536 441.821288,50.1436313 C442.192386,49.6041106 442.603004,49.0857854 443.012658,48.5751676 C443.463759,48.0125246 443.949561,47.4836016 444.47199,46.9855084 C445.890838,45.6299627 447.497646,44.4401269 449.137225,43.3639758 C456.130259,38.7751596 464.316591,35.9542371 472.13568,33.1227169 C473.95358,32.4637309 475.777263,31.8172695 477.596127,31.1582835 C474.70156,26.2669503 474.230217,19.9410702 469.713421,16.1104733 C464.995171,12.1093493 460.152579,14.1566376 459.032537,20.1366465 C456.481116,35.9754325 432.42238,37.0284613 439.350833,15.4168038 C440.619315,11.5977681 441.790443,8.07546867 444.474881,0 C377.772615,65.9072699 403.076699,25.4701939 358.000305,39.7694191 C362.306009,43.3360363 366.886422,46.6743206 370.810425,50.6475051 C371.648047,51.4953234 372.358435,52.4433383 373.164249,53.3181326" id="NewPei" fill="#d7dee4"></path>
            <path d="M365.000305,253 C357.508723,254.825343 350.011369,256.624734 342.503432,258.381831 C325.15648,262.441034 307.791249,266.420455 290.494324,270.687279 C289.317722,270.978527 288.137271,271.257279 286.96644,271.563906 C286.454623,271.698475 285.955313,271.858037 285.449268,272.008947 C285.406937,272.022404 285.383847,272.028171 285.349213,272.038745 C285.170269,272.132944 284.99325,272.230026 284.813344,272.317496 C284.726759,272.35979 284.677693,272.379014 284.626704,272.398238 C284.59688,272.431881 284.579563,272.453989 284.533384,272.501088 C284.351554,272.687563 284.170686,272.875961 283.988856,273.063398 C283.949412,273.102807 283.895536,273.169131 283.846471,273.233532 C283.746417,273.374831 283.6454,273.516129 283.54727,273.660311 C282.90365,274.6023 282.29274,275.566396 281.651044,276.509346 C278.740805,280.78386 275.573694,284.902658 272.193968,288.818639 C270.465142,290.821807 268.461165,292.698095 265.836658,293.418043 C263.114983,294.163944 260.235529,293.717941 257.471523,293.518009 C253.921512,293.261365 250.370539,293.00376 246.818603,292.747116 C247.104336,307.261432 245.537136,321.758445 245.000305,336.252575 C245.243707,346.797081 244.927188,357.340626 245.052256,367.885132 C248.895697,369.10395 252.565004,370.952363 256.232387,372.562394 C256.53736,372.696964 256.843296,372.829611 257.149232,372.960336 C257.640846,373.158346 258.130536,373.360201 258.626961,373.550521 C259.592871,373.919627 260.570327,374.264702 261.563176,374.554989 C263.147693,375.021177 265.005436,375.128833 266.203204,376.400517 C267.113315,377.368459 267.86661,378.5421 268.669933,379.60424 C271.416622,383.236664 274.012267,386.978666 276.437627,390.831207 C280.70245,397.602953 284.398695,404.70151 287.881362,411.900034 C289.440866,411.921181 291.001331,411.969241 292.54448,411.971164 L311.998349,412 C312.313905,411.76258 312.636196,411.534773 312.950791,411.296392 C313.193231,411.111839 313.43567,410.926325 313.67811,410.740811 C313.731024,410.699479 314.282286,410.275584 314.342896,410.228485 C315.014415,409.703662 315.683049,409.174995 316.349758,408.642483 C319.123385,406.424965 321.844098,404.139201 324.506125,401.788074 C329.191371,397.650052 333.700558,393.311137 338.012523,388.785746 C340.168506,386.524012 342.276385,384.215179 344.333275,381.861168 C345.36172,380.684644 346.377658,379.497546 347.380127,378.298913 C347.832297,377.75775 348.27677,377.207936 348.730863,376.667735 C348.800132,376.58507 348.851121,376.526436 348.893452,376.477415 C348.92039,376.43416 348.950214,376.387061 348.987734,376.326504 C349.209971,375.980467 349.428359,375.631547 349.649633,375.283588 C349.702547,375.200924 349.741991,375.145173 349.775663,375.099035 C349.786246,375.050013 349.799715,374.992341 349.817994,374.92025 C349.887263,374.65111 349.951721,374.383893 350.010407,374.114753 C350.019065,373.991718 350.055624,373.667789 350.06332,373.524568 C350.079675,373.174687 350.08641,372.824805 350.09122,372.473001 C350.108537,370.839901 350.06813,369.203916 350.014255,367.571777 C349.900732,364.215221 349.678495,360.863471 349.434131,357.514606 C348.947327,350.823602 348.367204,344.13356 348.334493,337.420449 C348.333531,337.256082 348.366242,337.103249 348.381635,336.943687 C348.389331,336.846605 348.396066,336.750484 348.410496,336.655324 C348.437434,336.481344 348.477841,336.315054 348.52402,336.149726 C348.568275,335.983436 348.61734,335.82003 348.679874,335.659507 C348.720281,335.560502 348.767422,335.468226 348.813601,335.374027 C348.874211,335.248108 348.917503,335.114499 348.99062,334.994348 C350.64152,332.308719 352.177934,329.555805 353.580621,326.732722 C354.251179,325.384141 354.893837,324.020179 355.506671,322.644684 C355.67407,322.268849 355.835696,321.891093 356.001171,321.515258 C356.030995,321.446051 356.054084,321.392223 356.077174,321.34224 C356.097377,321.289373 356.123353,321.225933 356.155101,321.149036 C356.41101,320.513675 356.670766,319.880235 356.919941,319.24199 C359.161547,313.497781 360.90288,307.560369 362.131434,301.519146 C362.417167,300.109046 362.675,298.69318 362.90397,297.273468 C363.003063,296.66502 363.096383,296.05465 363.183931,295.445241 C363.184893,295.443319 363.261858,294.860824 363.286871,294.687805 C363.311885,294.484028 363.336899,294.27929 363.336899,294.278329 C363.664962,291.558096 363.892009,288.825368 364.012267,286.088794 C364.25182,280.615648 364.071915,275.123277 363.456194,269.678967 C363.410015,269.270451 363.359026,268.862897 363.309961,268.455343 C363.302264,268.389019 363.296492,268.338075 363.29072,268.288092 C363.20221,267.683489 363.110814,267.078886 363.022304,266.475244 C362.74042,264.544167 362.451801,262.57272 363.008835,260.651255 C363.069445,260.438827 363.153145,260.217748 363.232034,259.998591 C363.061749,260.271576 362.89916,260.376348 363.531235,259.201746 C363.681317,258.687497 363.804461,258.163636 363.929529,257.642659 C364.299923,256.098951 364.64338,254.547553 365.000305,253" id="Nantou" fill="#d7dee4"></path>
            <path d="M275.350651,599.003323 C274.960052,598.474979 274.565595,597.949523 274.166316,597.427915 C274.131596,597.381721 274.083374,597.317242 274.033223,597.250838 C273.890485,597.067025 273.747748,596.886098 273.604046,596.703247 C272.859496,595.758195 272.093729,594.830465 271.351108,593.883488 C269.310348,591.280263 267.327454,588.500924 266.756504,585.163407 C266.068857,581.142604 267.383392,577.653032 269.156037,574.103793 C270.440675,571.531364 271.827543,569.010904 273.308927,566.546261 C275.601406,562.735256 278.143677,559.07823 280.861476,555.555938 C276.962235,552.514832 273.400549,549.063755 270.296973,545.199819 L254.484937,545.145926 C249.387859,545.128604 244.18662,544.816794 239.098221,545.161324 C238.98731,545.17576 238.818533,545.201744 238.658435,545.240239 C238.481943,545.281621 238.308343,545.326853 238.133779,545.378821 C238.14921,545.374009 238.002615,545.415391 237.850233,545.46351 C237.829979,545.476021 237.821299,545.480833 237.797188,545.494306 C237.436487,545.701217 236.620568,546.019763 236.169209,546.383541 C236.29748,546.298852 236.341845,546.340234 235.976321,546.646269 C235.849979,546.751168 235.724601,546.857992 235.600188,546.965778 C235.307962,547.218882 235.022487,547.478724 234.737977,547.739527 C234.123627,548.303479 233.522779,548.881866 232.907465,549.445818 C231.524454,550.717116 230.052715,551.972053 228.424736,552.91903 C226.183371,554.224011 223.744296,554.82357 221.178879,555.037217 C219.011777,555.218144 216.839852,554.938093 214.69011,554.692687 C213.60029,554.568541 212.508541,554.446319 211.41197,554.389539 C210.935535,554.363555 210.456207,554.347195 209.978808,554.357781 C209.892008,554.359705 209.823533,554.360668 209.762773,554.360668 C209.746377,554.389539 209.732875,554.415523 209.715515,554.444394 L209.668258,554.585864 C209.609427,554.757166 209.546738,554.928469 209.487907,555.100734 C209.310449,555.612718 209.139743,556.126626 208.965179,556.63861 L206.648588,563.476285 C203.432172,572.962416 200.216721,582.450472 197.000305,591.936603 C200.479049,595.256797 203.88546,598.653981 207.169387,602.175312 C224.771428,621.052299 239.995153,646.420506 248.258496,670.862909 C252.022716,681.996626 268.341083,701.052615 279.735972,699.954545 C289.128677,699.050875 272.927972,657.704354 282.339966,654.750825 C287.074415,670.920651 290.734474,685.521806 294.056979,692.114075 C295.573082,635.08854 304.793153,724.959937 307.376894,680.805206 C307.568818,672.881972 309.208371,667.252077 311.000305,657.616778 C300.971067,642.855869 293.20634,626.676419 283.79531,611.529597 C281.137307,607.250878 278.349103,603.051073 275.350651,599.003323" id="Pingtung" fill="#d7dee4"></path>
            <path d="M460.277052,227.429855 C460.08757,227.332676 459.638391,227.140242 459.598956,227.113302 C459.290206,226.998804 458.982417,226.884306 458.667896,226.787127 C457.697401,226.487893 456.707669,226.288724 455.710242,226.112648 C455.68812,226.107837 455.586165,226.092442 455.487095,226.07801 C455.388026,226.065502 455.287995,226.052031 455.264911,226.050107 C454.756098,225.996226 454.246323,225.944269 453.736549,225.900009 C449.674704,225.548818 445.584004,225.524764 441.51735,225.822073 C440.442976,225.900009 439.370525,226.001036 438.299999,226.125156 C438.122059,226.145362 437.557459,226.218486 437.478589,226.226184 C437.111166,226.279103 436.743744,226.332022 436.377283,226.389752 C434.326643,226.71304 432.287545,227.120999 430.268646,227.610742 C428.123745,228.131275 425.967303,228.740326 423.744493,228.784586 C421.26872,228.833657 418.925681,228.039869 416.788476,226.841008 C413.551888,225.022512 410.492279,223.025053 407.10276,221.473078 C406.657428,221.269098 406.20825,221.071854 405.760033,220.873648 C405.699437,220.846707 405.569589,220.792826 405.469557,220.751453 C405.271419,220.67063 405.338747,220.697571 405.469557,220.751453 C405.534001,220.777431 405.617681,220.812069 405.748491,220.86595 C405.553237,220.786091 405.358946,220.705269 405.164655,220.626371 C404.630834,220.409883 404.092204,220.205904 403.554536,220 C401.789562,224.033405 399.825488,227.973479 397.239103,231.557552 C394.633482,235.164716 391.644087,238.371619 388.165117,241.148434 C384.595733,243.997411 380.808974,246.520213 376.937573,248.938139 C376.523982,249.196962 376.107506,249.454823 375.691992,249.711721 C375.308218,250.908657 374.993697,252.131572 374.694565,253.350637 C374.000118,256.193841 373.517275,259.128451 372.653543,261.927395 C372.60449,262.089039 372.549665,262.247797 372.491954,262.407517 C372.35345,262.79527 372.251495,263.075261 372.176471,263.277316 C372.183204,263.51882 372.20725,263.761286 372.208212,263.99413 C372.208212,264.052823 372.21783,264.154812 372.227449,264.250067 C372.310167,264.83314 372.403465,265.414289 372.48426,265.9964 C372.900736,269.004135 373.238341,272.018604 373.423976,275.051355 C374.779207,297.182162 369.223626,319.773846 357.863349,338.807437 C357.973961,346.251724 358.700149,353.667146 359.182992,361.09219 C359.404215,364.501148 359.57446,367.913955 359.597544,371.33061 C359.611972,373.295356 359.581193,375.310134 359.094503,377.226771 C358.649171,378.981763 357.770051,380.566453 356.690868,382.000082 C352.662687,387.349731 348.032395,392.331833 343.377096,397.135933 C335.068733,405.711729 326.042838,413.559164 316.481199,420.702293 C316.462924,421.033278 316.409061,421.363302 316.30903,421.683703 C315.206763,425.249495 314.102572,428.815286 313.000305,432.381078 C317.288182,434.849036 321.290393,437.681656 324.295177,441.746813 C325.835081,443.829904 327.049883,446.302674 327.620254,448.837022 C327.930928,450.217732 328.123295,451.68215 328.092517,453.100385 C328.079051,453.792183 327.993447,454.482057 327.983829,455.173855 C327.982867,455.23832 327.975172,455.35378 327.968439,455.475013 C328.082898,455.586625 328.195433,455.701123 328.314701,455.808885 C328.760033,456.212996 329.231334,456.592089 329.693016,456.977918 C330.639466,457.764971 331.592648,458.545289 332.553525,459.31406 C333.174872,459.812463 333.800068,460.307017 334.427187,460.797722 C334.52818,460.875658 334.822502,461.104653 334.914839,461.175854 C335.058153,461.285541 335.202429,461.397152 335.345743,461.505877 C336.324894,462.251557 337.310779,462.989539 338.304358,463.716937 C346.071206,469.408156 354.258378,474.506679 362.771612,479 C364.921322,477.579841 367.071993,476.157758 369.222665,474.736637 C374.552213,465.043766 379.852906,455.327802 384.784254,445.410745 C408.67729,397.333177 428.175684,346.579823 445.804265,295.545515 C451.536824,278.951981 457.071244,262.328619 462.494091,245.757214 C464.019567,241.096477 465.520035,236.42708 467.000305,231.750947 C465.609486,230.803213 464.221553,229.852592 462.815345,228.931798 C461.992973,228.392022 461.152325,227.878225 460.277052,227.429855" id="Taitung" fill="#d7dee4"></path>
            <path d="M497.663276,89.7215674 C497.045152,90.0861791 496.471179,90.503425 495.877051,90.9005742 C495.875131,90.9024882 495.876091,90.9015312 495.874171,90.9024882 C495.868412,90.9082301 495.867453,90.9091871 495.860734,90.913972 C495.72348,91.0288103 495.586225,91.1407777 495.448971,91.256573 C495.176382,91.4872066 494.908593,91.7226252 494.644642,91.9637856 C494.06971,92.4891709 493.515894,93.0365669 492.977435,93.5992747 C491.88612,94.741916 490.866791,95.9496323 489.878176,97.1812733 C489.608467,97.5162184 489.342597,97.8540345 489.078646,98.1918505 C489.025856,98.2578825 488.974026,98.3258285 488.921236,98.3928176 C488.436527,99.0282563 487.947978,99.661781 487.46039,100.294349 C486.315325,101.783419 485.171219,103.27536 483.965685,104.716581 C481.410645,107.773194 478.486073,110.479551 474.768691,112.043266 C471.053227,113.606024 466.98839,114.273043 463.074244,115.173567 C456.040684,116.79183 449.008083,118.409137 441.974522,120.0274 C441.273854,126.307142 440.575105,132.587841 439.874436,138.867583 C439.64216,140.953813 439.574972,143.065881 438.644907,144.985595 C437.872252,146.581847 436.466116,147.913015 434.873774,148.689131 C433.003085,149.601138 430.804138,149.824116 428.781797,150.265287 C424.496201,151.198348 420.227882,152.220409 415.974919,153.297018 C409.965487,154.818626 403.892706,156.371814 397.962938,158.292485 C397.68939,158.40828 397.415841,158.527904 397.142292,158.643699 C395.842696,159.188224 394.547899,159.728921 393.229106,160.183489 C392.061005,168.09585 390.654869,175.971844 388.807216,183.757883 C387.162084,190.688375 385.175257,197.526997 383.000305,204.309157 C389.716165,205.701571 396.40995,207.236577 402.905051,209.450086 C406.668505,210.732447 410.378209,212.234915 413.939141,214.002468 C415.631304,214.842702 417.289873,215.753752 418.900451,216.740405 C419.718217,217.239952 420.515828,217.772036 421.346072,218.249572 C421.658973,218.429485 421.982432,218.586431 422.301093,218.753903 C422.461383,218.799839 422.618793,218.858215 422.779083,218.901279 C422.924016,218.940516 423.06127,218.961569 423.160132,218.972096 C423.312743,218.975924 423.465354,218.980709 423.618925,218.977838 C423.801291,218.97401 423.981737,218.958698 424.163143,218.950086 C425.079771,218.743377 425.99544,218.545281 426.908228,218.316561 C428.919051,217.816057 430.948111,217.389241 432.993487,217.048554 C437.277163,216.334643 441.61267,215.891558 445.956815,215.833182 C450.264487,215.775763 454.690217,215.980558 458.923983,216.814093 C462.972503,217.612219 466.40194,219.667825 469.735395,221.991387 C469.739234,221.994258 469.744033,221.997129 469.747872,222 C473.285769,210.588899 476.697929,199.138561 479.934441,187.639418 C488.935633,155.66843 497.653678,122.396897 499.000305,89 C498.92256,89.0382794 498.842895,89.0756019 498.765149,89.1148383 C498.391779,89.3052785 498.024168,89.5081596 497.663276,89.7215674" id="Yilan" fill="#d7dee4"></path>
            <path d="M345.369638,479.299282 C340.841611,476.469165 336.427466,473.457147 332.14375,470.271936 C329.816469,468.541936 327.519362,466.770332 325.259242,464.954219 C323.052656,463.180679 320.428503,461.434231 319.289683,458.751184 C318.593738,457.113103 318.407828,455.428579 318.510029,453.660844 C318.522683,453.44024 318.53631,453.220604 318.54799,453 C313.021306,456.761878 307.494621,460.523756 301.966964,464.284667 C301.224297,464.790701 300.478711,465.289963 299.741884,465.804705 C299.513147,465.965321 299.286356,466.129806 299.060539,466.293324 C299.012845,466.337832 298.498916,466.733564 298.422994,466.798391 C297.899332,467.250242 297.435043,467.745633 296.953235,468.238122 C296.903594,468.289403 296.86174,468.331008 296.825726,468.36584 C296.798472,468.415186 296.764405,468.472272 296.722551,468.543871 C296.512307,468.890258 296.279676,469.221164 296.077219,469.572389 C295.739467,470.158731 295.444542,470.766359 295.163243,471.379793 C295.111656,471.512349 294.894598,472.025157 294.858585,472.117075 C294.711609,472.499262 294.571446,472.883383 294.43031,473.268473 C293.859927,474.835922 293.311931,476.411112 292.765881,477.987269 C290.380199,484.877272 288.165826,491.824362 286.125683,498.822733 C282.416245,511.54326 279.294709,524.429241 276.741611,537.426491 C276.779572,537.469064 276.830186,537.49809 276.8662,537.543566 C278.845021,540.01375 280.998073,542.335897 283.333141,544.47711 C284.491428,545.540459 285.693516,546.554464 286.930644,547.52783 C287.018246,547.593624 287.127261,547.676835 287.227516,547.751337 C287.510761,547.961298 287.79498,548.168356 288.081145,548.373479 C288.76833,548.864032 289.465249,549.339105 290.171902,549.803534 C292.947897,551.633192 293.240876,554.934511 291.156932,557.40276 C290.596282,558.06554 290.040499,558.734124 289.49445,559.409482 C289.220938,559.748129 288.952293,560.087743 288.681702,560.428324 C288.618434,560.506697 288.569767,560.566685 288.528886,560.618934 C288.488979,560.673117 288.440311,560.736009 288.377043,560.821154 C287.418293,562.092529 286.47025,563.371645 285.559193,564.676885 C283.737081,567.287366 282.026904,569.975251 280.434503,572.730865 C279.603261,574.172531 278.803167,575.631614 278.03714,577.107145 C277.670187,577.8154 277.307128,578.526557 276.958668,579.244487 C276.893454,579.377043 276.695863,579.809543 276.626755,579.946937 C276.495353,580.276875 276.366871,580.609716 276.263696,580.948363 C276.167334,581.261853 276.086546,581.581148 276.018411,581.903346 C276.007705,582.014615 275.996024,582.165555 276.001864,582.241025 C276.000305,582.40551 276.013545,582.569028 276.023278,582.733513 C276.11964,583.018944 276.186801,583.336304 276.263696,583.625605 C276.282189,583.694302 276.295816,583.748485 276.307497,583.795896 C276.32599,583.830728 276.345457,583.864592 276.369791,583.910068 C276.525527,584.202271 276.675423,584.495442 276.841866,584.78184 C277.213686,585.420431 277.628333,586.03193 278.064394,586.628915 C278.191903,586.804043 278.452761,587.136884 278.504349,587.203646 C278.685392,587.431023 278.867408,587.656465 279.049425,587.882874 C279.397884,588.312471 279.746344,588.741101 280.09091,589.175536 C280.984446,590.297907 281.864355,591.430921 282.73161,592.572643 C284.188716,594.491317 285.596181,596.445791 286.960818,598.428324 C289.708587,602.417579 292.290886,606.516168 294.776823,610.668941 C299.776925,619.01706 304.398393,627.579009 309.261253,636.003565 C310.616156,638.351836 311.999288,640.682691 313.404806,643 C315.802168,623.476549 318.213157,601.168458 322.832679,587.893517 C329.798949,567.879513 333.551215,549.029485 341.336073,530.358456 C347.336779,515.97082 354.536653,502.198554 362.000305,488.551103 C361.74042,488.459184 361.484429,488.356623 361.242065,488.233742 C355.818556,485.493609 350.519635,482.518358 345.369638,479.299282" id="Hualien" fill="#d7dee4"></path>
            <path d="M176.976448,406.748246 C177.765723,403.43265 179.088864,400.179613 182.050087,398.23934 C184.95754,396.335639 188.138646,396.82552 191.388886,396.722539 C191.544437,396.718689 191.699987,396.709065 191.854578,396.697516 C191.874742,396.693666 191.891065,396.690779 191.910269,396.686929 C191.931393,396.67538 191.943875,396.669605 191.96788,396.657093 C192.01685,396.608971 192.061979,396.563737 192.085983,396.539676 C192.089824,396.534864 192.092705,396.531014 192.096545,396.527164 C192.184883,396.362588 192.377881,396.162401 192.450855,396.048833 C192.739872,395.599375 193.002964,395.13548 193.272777,394.67351 C194.818682,392.027771 196.683369,389.814166 199.704124,388.87194 C200.570214,388.602457 201.434384,388.626518 202.231341,388.86424 C202.899633,388.933536 203.565044,389.105812 204.180525,389.381069 C211.153418,392.506102 218.124391,395.630173 225.097284,398.755206 C228.235182,400.161327 228.246704,405.664542 225.097284,407.06585 C217.86706,410.283277 210.696368,413.752863 203.357643,416.713319 C201.180894,417.590099 198.87452,417.636296 196.652643,416.865384 C194.900298,416.256162 193.189241,415.555507 191.412891,415.009806 C189.712396,414.48624 187.989817,414.034857 186.249954,413.658544 C185.308009,413.454507 184.361262,413.270682 183.410675,413.109955 C182.972829,413.035847 182.533062,412.970401 182.093296,412.902068 C182.037605,412.893406 181.995356,412.886669 181.955028,412.879932 C181.891656,412.873195 181.786995,412.861646 181.60552,412.83951 C180.036571,412.647985 178.831533,412.2351 177.835817,410.942547 C176.88523,409.710627 176.614457,408.267934 176.976448,406.748246 M132.759741,436.464453 C135.682556,437.341233 138.571765,438.301745 141.363995,439.539439 C141.7932,439.730964 142.220484,439.928264 142.633365,440.151549 C142.80908,440.245868 142.979033,440.346924 143.149947,440.44798 C143.227722,440.493214 143.306458,440.541336 143.386153,440.587533 C143.974749,440.241056 144.545102,439.857043 145.128896,439.500941 C146.370421,438.745428 147.63499,438.029375 148.916842,437.345082 C154.101863,434.576151 159.547096,432.33656 164.75036,429.605164 C167.415845,428.206743 169.908496,426.557125 172.501007,425.0384 C175.492956,423.286764 178.523313,422.348388 181.955028,421.986512 C188.135766,421.333979 194.382756,421.085671 200.582697,420.648724 C206.931467,420.201191 213.281197,419.753658 219.629967,419.305162 C221.515779,419.171383 223.996907,420.895108 224.259039,422.838269 C225.12705,429.254837 225.759815,435.685841 225.842391,442.16593 C225.900002,446.784665 225.702203,451.398588 225.340212,456 C225.446793,455.995188 225.555294,455.995188 225.661875,455.989413 C226.123726,455.96439 226.584617,455.930705 227.045508,455.888357 C227.086796,455.884508 227.747406,455.808475 227.906797,455.795001 C228.721998,455.674696 229.530477,455.519744 230.335116,455.346505 C230.878583,455.229088 231.407647,455.211764 231.921348,455.251224 C235.477888,450.53047 239.433867,446.133095 243.666381,442.005203 C252.69984,433.195054 262.594588,425.249173 272.187837,417.066534 C273.508097,415.93952 274.822596,414.724924 276.299367,413.806759 C276.530773,413.663356 276.764098,413.532465 277.000305,413.410235 C274.799552,408.964738 272.502779,404.567363 270.003407,400.281631 C268.245301,397.265353 266.392136,394.30586 264.440072,391.411811 C263.448196,389.94217 262.430396,388.48889 261.390511,387.052934 C261.164867,386.742067 260.933461,386.434087 260.705896,386.12322 C257.182962,387.472556 253.660029,388.820931 250.137095,390.170267 C246.270414,391.651458 242.244341,393.596543 237.989743,393.182695 C233.813881,392.775585 229.737878,391.106719 225.748292,389.881536 C221.799035,388.667903 217.847857,387.455232 213.898599,386.241599 C210.403511,385.169444 206.910343,384.095365 203.415254,383.02321 C202.403215,382.712343 201.394056,382.387039 200.360893,382.155092 C200.268715,382.13488 199.610025,382.052111 199.496723,382.023238 C199.181781,382.015538 198.867799,382.016501 198.551897,382.000423 C198.499086,381.998214 198.412669,382.004951 198.328173,382.013613 C197.990186,382.076172 197.6522,382.144505 197.319974,382.230162 C196.490371,382.447672 195.680931,382.736404 194.882054,383.043421 C190.566004,384.708437 186.290282,386.421575 181.907019,387.909503 C171.648359,391.3916 161.210143,394.330883 150.749843,397.12965 C137.787291,400.596348 124.741202,403.737743 111.718157,406.972494 C109.930285,414.467953 108.639791,422.068319 108.000305,429.78129 C109.145811,430.093119 110.292276,430.401099 111.438742,430.707154 C118.550863,432.599305 125.708112,434.348053 132.759741,436.464453" id="ChiayiSmall" fill="#D7DEE4"></path>
            <path d="M170.914731,334.042982 C173.475715,334.496145 176.042481,334.916597 178.614066,335.308184 C179.941305,335.510231 181.271436,335.705544 182.601566,335.892197 C183.157715,335.971092 183.714828,336.0471 184.27194,336.123109 C184.177482,336.107715 185.304237,336.257807 185.523034,336.284747 C193.259959,337.240143 201.016162,337.222824 208.756943,336.326118 C209.268754,336.267428 209.778638,336.202003 210.290449,336.138503 C211.100093,335.893159 211.032623,335.995145 210.775272,336.065381 C210.86973,336.056722 210.964189,336.049025 211.0519,336.036517 C212.079378,335.891235 213.105892,335.73537 214.131441,335.571808 C216.456278,335.201387 218.775332,334.789595 221.09053,334.356636 C225.508876,333.529204 229.912765,332.623839 234.313762,331.708852 C235.02702,316.994985 236.528718,302.27727 235.81064,287.540311 C235.608229,286.560862 235.358589,285.593921 235.013526,284.651995 C234.99714,284.606775 234.973044,284.526918 234.948947,284.439364 C234.892079,284.231543 234.733042,283.966957 234.64533,283.784153 C234.382196,283.233814 234.095929,282.693096 233.792312,282.162962 C233.24291,281.198907 232.634713,280.266602 231.987961,279.363161 C231.872298,279.200561 231.751815,279.040848 231.632296,278.881134 C231.641934,278.896528 231.578319,278.81186 231.374944,278.530918 C230.979761,278.043118 230.584577,277.558204 230.178791,277.080987 C227.289131,273.683703 224.081396,270.572172 221.166675,267.197017 C217.628335,263.101226 214.373371,258.769713 211.096238,254.466101 C205.647522,247.310734 200.198807,240.155367 194.750091,233 C176.539834,264.040265 158.91175,295.42305 143.000305,327.703502 C147.41576,328.92637 151.853384,330.065533 156.319923,331.08924 C161.159477,332.196653 166.02602,333.178988 170.914731,334.042982" id="Changhua" fill="#f6b633"></path>
            <path d="M109.909328,113.780505 C110.227671,112.613794 111.627428,111.664768 112.831428,112.113503 C121.698458,115.41791 127.931321,123.835984 127.999741,133.428408 C128.03015,137.784 126.830901,142.266574 124.466613,145.933788 C123.140027,147.993195 121.378215,149.498843 118.855231,149.656378 C116.544158,149.800546 114.426942,148.726446 112.235605,148.187965 C107.81967,147.103363 103.186122,148.228064 98.8804195,149.296435 C95.3301866,150.176719 90.2576109,152.305823 86.8831792,149.870243 C82.6601507,146.820756 86.6285052,141.164787 88.2705829,137.772543 C89.0868703,136.08931 89.398561,134.624716 89.0887709,132.782038 C88.6887045,130.401834 89.0678648,128.268912 90.7679094,126.48161 C92.1657661,125.013197 94.1584958,124.100451 96.1350708,123.777744 C98.4328393,123.40348 100.84084,123.702319 103.106299,123.17052 C106.476929,122.379028 108.790853,119.518582 109.279295,116.140659 C109.342963,115.693834 109.588135,115.323389 109.919781,115.037917 C109.805748,114.651242 109.786742,114.22733 109.909328,113.780505 Z M72.8030882,130.00024 C74.0565593,130.020704 75.3119397,130.041169 76.5654108,130.061633 C77.9544439,130.083958 78.8346422,131.118345 78.9520656,132.387143 C79.3301117,136.440972 77.4618383,140.768281 74.2016679,143.318901 C73.51813,143.854698 72.7706297,144.156084 71.8799301,143.917022 C71.0207344,143.686331 70.5128543,143.072397 70.2130904,142.292886 C68.9147502,138.919966 68.7009059,135.259613 69.3710786,131.73321 C69.6049708,130.500689 71.0255077,129.902568 72.17683,130.09326 C72.3811276,130.036518 72.5892439,129.996519 72.8030882,130.00024 Z" id="Kinmen" fill="#f6b633"></path>
            <path d="M41.9566381,341.563744 C42.9261491,340.723021 44.2689171,340.881297 45.2298146,341.651261 C48.2225698,344.044947 50.8181414,347.378976 50.992328,351.278143 C51.1636434,355.113067 48.5498875,358.168718 45.6269983,360.406921 C42.4878114,362.808986 39.2117637,365.053707 35.9988825,367.360806 C33.0798216,369.456562 30.0928088,371.718972 26.5162413,372.628591 C23.3521707,373.432073 18.3591409,373.162073 17.1905595,369.486355 C16.1234273,366.135567 19.8024012,363.545433 21.8371302,361.369609 C22.7300757,360.414369 23.6364202,359.377199 24.1494093,358.169649 C24.7418351,356.774961 24.4862976,355.309515 24.5408506,353.845932 C24.6509135,350.967178 26.0310073,348.546492 28.6830459,347.199287 C30.7570148,346.145358 33.0616373,345.747807 35.2954367,345.151945 C36.4420056,344.846567 37.0937697,344.666877 37.9407759,344.193912 C38.5686132,343.843844 38.3877272,343.980706 38.8863602,343.477948 C38.9456985,343.418362 38.9744106,343.392293 38.9916378,343.381121 C38.9983373,343.361569 39.0155645,343.325259 39.0605468,343.249845 C39.1782663,343.049673 39.2883292,342.850432 39.3869074,342.64188 C39.8185456,341.728537 40.9785134,341.377538 41.9566381,341.563744 Z M26.9509886,324.070779 C27.8524742,323.829987 29.1430704,324.205085 29.548739,325.173047 C31.2771996,329.304873 31.5540845,334.043953 29.8789771,338.258281 C29.5165431,339.170602 28.9462154,339.839254 27.9665398,339.976438 C26.9868641,340.114581 26.2270405,339.633958 25.6760304,338.831959 C25.5481667,338.64585 25.419383,338.462618 25.2896795,338.279386 C25.2556438,338.232379 25.2206882,338.183454 25.1857327,338.135487 C24.9520823,337.837136 24.7221115,337.533989 24.4811021,337.240434 C23.9963236,336.64661 23.488548,336.071973 22.960535,335.5194 C22.409525,334.942844 21.8373576,334.389311 21.2449528,333.860721 C20.9607088,333.6065 20.6691058,333.360912 20.3775028,333.117242 C20.352666,333.095178 20.3416274,333.085584 20.3250695,333.072154 C20.3039122,333.055845 20.2855145,333.042415 20.2496391,333.015553 C20.0978583,332.901393 19.9488372,332.784355 19.7970565,332.670195 C19.5744448,332.501354 19.3877085,332.308529 19.225809,332.102273 C18.8514165,331.882587 18.5230182,331.579439 18.3096053,331.233122 C17.9940853,330.723719 17.9260139,329.960094 18.0777947,329.385456 C18.248893,328.734072 18.6361638,328.341707 19.1338207,327.95222 C21.4519265,326.135253 24.1453447,324.820973 26.9509886,324.070779 Z M10.4366994,333.327252 C9.69908832,332.477919 8.48547721,332.326733 7.47964388,332.844807 C4.02581055,334.628215 1.7553661,338.178659 0.753310546,341.911104 C0.165866101,344.101844 -0.0116894541,346.4274 0.000588323654,348.692289 C0.00719943476,349.793919 0.0610327681,350.892659 0.128088324,351.9914 C0.202699435,353.190289 0.16775499,354.499919 0.668310546,355.610215 C1.21892166,356.830289 2.3588661,357.691178 3.70753277,357.718141 C4.99292166,357.743178 6.08469943,357.074881 7.05558832,356.290067 C8.56575499,355.067104 9.93897721,353.667919 11.1488105,352.138733 C13.6043661,349.035104 15.8039772,345.282437 16.6350883,341.341993 C17.1431994,338.942289 16.9316439,336.245993 15.0219772,334.524215 C13.6638661,333.300289 12.0035328,332.909326 10.4366994,333.327252" id="Penghu" fill="#d7dee4"></path>
        </g>
    </g>
</svg>